<svg viewBox="0 0 20 21" xmlns="http://www.w3.org/2000/svg">
    <path fill-rule="evenodd" clip-rule="evenodd"
          d="M16.4923 2.00435C16.2723 2.00435 16.0544 2.04768 15.8512 2.13187C15.6479 2.21606 15.4632 2.33946 15.3077 2.49502L3.11054 14.6921L2.22209 17.9498L5.47973 17.0613L17.6769 4.86421C17.8324 4.70865 17.9558 4.52397 18.04 4.32071C18.1242 4.11746 18.1675 3.89962 18.1675 3.67962C18.1675 3.45961 18.1242 3.24177 18.04 3.03852C17.9558 2.83527 17.8324 2.65059 17.6769 2.49502C17.5213 2.33946 17.3366 2.21606 17.1334 2.13187C16.9301 2.04768 16.7123 2.00435 16.4923 2.00435ZM15.1499 0.438886C15.5755 0.262605 16.0316 0.171875 16.4923 0.171875C16.9529 0.171875 17.409 0.262605 17.8346 0.438886C18.2602 0.615166 18.6469 0.873544 18.9726 1.19927C19.2983 1.52499 19.5567 1.91168 19.733 2.33726C19.9093 2.76284 20 3.21898 20 3.67962C20 4.14026 19.9093 4.59639 19.733 5.02197C19.5567 5.44755 19.2983 5.83424 18.9726 6.15996L6.60343 18.5291C6.49068 18.6419 6.35046 18.7233 6.19663 18.7652L1.15733 20.1396C0.840122 20.2261 0.500875 20.136 0.26838 19.9035C0.0358855 19.671 -0.0542064 19.3318 0.0323059 19.0145L1.40666 13.9752C1.44861 13.8214 1.52999 13.6812 1.64273 13.5684L14.0119 1.19927C14.3376 0.873544 14.7243 0.615166 15.1499 0.438886Z"
    />
</svg>
